<?xml version="1.0" standalone="no"?>
<!DOCTYPE svg PUBLIC "-//W3C//DTD SVG 20010904//EN"
 "http://www.w3.org/TR/2001/REC-SVG-20010904/DTD/svg10.dtd">
<svg version="1.0" xmlns="http://www.w3.org/2000/svg"
 width="1725.000000pt" height="1725.000000pt" viewBox="0 0 1725.000000 1725.000000"
 preserveAspectRatio="xMidYMid meet">
<metadata>
Created by potrace 1.11, written by Peter Selinger 2001-2013
</metadata>
<g transform="translate(0.000000,1725.000000) scale(0.100000,-0.100000)"
fill="#000000" stroke="none">
<path d="M8500 15695 c-9 -11 -33 -15 -89 -15 -42 0 -115 -5 -161 -10 -47 -6
-101 -12 -120 -15 -19 -2 -64 -7 -100 -10 -164 -16 -224 -25 -315 -46 -44 -10
-93 -21 -110 -24 -33 -6 -144 -9 -160 -4 -9 3 -106 -8 -145 -16 -84 -17 -149
-26 -216 -30 -99 -6 -175 -14 -183 -19 -7 -4 -47 -11 -140 -21 -106 -13 -145
-23 -216 -55 -33 -15 -76 -32 -95 -38 -33 -11 -51 -14 -140 -28 -101 -16 -159
-33 -305 -90 -88 -34 -177 -65 -198 -68 -20 -3 -63 -15 -94 -26 -68 -24 -104
-25 -142 -6 -32 17 -50 8 -106 -50 -30 -31 -67 -57 -185 -132 -86 -54 -137
-75 -182 -73 -39 1 -111 -25 -313 -114 -35 -15 -60 -22 -97 -29 -141 -24 -198
-41 -249 -72 -31 -19 -99 -49 -150 -68 -92 -32 -385 -147 -424 -166 -11 -5
-85 -37 -165 -71 -257 -108 -346 -165 -521 -336 -42 -41 -87 -82 -100 -91 -13
-9 -30 -22 -37 -29 -7 -7 -19 -16 -26 -20 -7 -5 -34 -35 -60 -68 -71 -89 -118
-137 -218 -222 -56 -48 -127 -125 -193 -207 -56 -72 -115 -142 -130 -156 -15
-14 -57 -63 -93 -110 -35 -47 -91 -110 -122 -140 -43 -41 -61 -67 -70 -100
-14 -53 -39 -98 -91 -161 -34 -41 -89 -136 -89 -153 0 -4 -18 -30 -39 -59 -51
-67 -81 -129 -121 -247 -17 -52 -62 -169 -100 -260 -38 -91 -73 -190 -78 -220
-6 -30 -40 -137 -76 -236 -96 -269 -101 -286 -110 -394 -3 -30 -28 -143 -56
-250 -83 -318 -159 -613 -164 -645 -31 -170 -44 -259 -51 -356 -8 -119 -16
-244 -20 -314 -2 -38 -7 -131 -11 -205 -14 -263 -5 -567 21 -770 3 -19 7 -71
10 -115 5 -79 11 -159 21 -265 5 -55 7 -74 19 -165 13 -93 16 -140 20 -290 3
-157 12 -305 20 -365 22 -157 37 -281 49 -420 3 -25 14 -90 24 -145 18 -89 24
-133 37 -280 13 -145 33 -250 94 -488 60 -234 151 -526 198 -637 3 -8 7 -19 9
-25 15 -52 73 -189 97 -230 42 -70 66 -128 92 -220 12 -44 52 -147 89 -228 37
-82 69 -163 73 -180 3 -18 11 -39 18 -47 7 -8 37 -62 65 -120 72 -144 113
-203 170 -245 26 -19 69 -66 94 -104 31 -46 65 -81 101 -105 29 -19 84 -66
122 -104 37 -38 89 -83 115 -100 56 -38 84 -73 93 -112 6 -28 10 -30 52 -30
45 0 49 -3 157 -107 60 -60 124 -121 142 -138 17 -16 101 -97 186 -180 150
-146 261 -234 363 -290 28 -15 55 -31 60 -35 6 -4 51 -29 100 -55 96 -51 304
-163 370 -200 22 -12 76 -41 120 -65 44 -24 127 -74 185 -110 105 -66 138 -82
195 -95 17 -4 64 -24 105 -44 41 -21 136 -64 210 -96 74 -31 149 -63 165 -70
24 -11 118 -38 170 -49 64 -15 339 -111 575 -201 63 -24 165 -57 225 -73 112
-30 418 -102 605 -142 19 -4 109 -24 200 -43 160 -35 200 -40 420 -53 58 -3
112 -8 120 -9 9 -2 43 -6 75 -10 33 -4 71 -9 85 -12 50 -9 356 -12 405 -3 28
5 68 12 90 15 22 4 43 9 46 11 8 5 169 17 224 17 22 0 85 -4 140 -8 118 -9
239 -10 351 -3 72 5 87 3 121 -16 41 -24 63 -24 63 0 0 18 -11 17 215 19 105
1 242 5 305 9 63 4 138 9 165 10 78 5 177 17 215 26 19 5 53 11 75 14 22 3 52
8 68 11 15 2 53 9 85 15 58 10 87 16 132 25 14 2 41 7 60 10 19 3 76 15 125
26 50 11 101 22 115 25 91 18 509 127 635 166 39 12 75 23 80 24 19 4 281 113
417 172 75 34 162 68 194 78 89 26 218 80 349 146 260 133 365 184 695 340 58
27 158 72 222 99 64 27 132 57 150 68 18 10 101 58 183 106 83 49 173 101 200
117 28 16 57 33 65 38 8 5 70 41 137 80 68 39 122 74 121 78 -6 23 22 57 99
118 92 73 119 100 202 204 29 35 69 83 90 105 119 127 214 241 266 320 32 50
78 111 101 136 23 25 50 61 59 80 17 33 226 348 305 459 22 30 54 91 72 135
18 44 51 107 73 140 89 130 205 355 205 398 1 36 25 92 64 152 32 47 91 163
95 187 1 4 19 39 41 77 66 116 160 358 166 426 3 33 19 121 34 195 16 74 31
149 35 165 9 47 16 168 16 300 1 269 -17 954 -27 1020 -9 57 -8 88 2 195 14
144 8 551 -10 750 -3 25 -7 80 -11 122 -4 43 -8 92 -11 110 -2 18 -6 59 -9 92
-5 54 -8 82 -20 176 -13 114 -18 147 -21 164 -2 10 -6 44 -9 75 -4 31 -8 63
-10 71 -3 8 -7 40 -10 70 -8 70 -36 230 -61 335 -2 11 -18 97 -34 190 -42 237
-44 248 -95 432 -20 70 -38 136 -40 146 -33 151 -152 434 -251 597 -22 36 -61
115 -88 175 -27 61 -72 155 -101 210 -29 55 -93 181 -143 280 -50 99 -114 216
-141 259 -28 44 -56 96 -62 115 -11 34 -42 77 -104 146 -15 17 -48 62 -73 100
-25 39 -73 102 -108 140 -34 39 -72 90 -85 115 -12 25 -64 86 -115 135 -54 54
-99 107 -108 130 -11 25 -69 92 -156 180 -76 77 -171 183 -211 235 -99 131
-293 333 -346 361 -15 8 -55 42 -88 75 -46 48 -85 74 -171 117 -71 35 -149 86
-212 136 -57 45 -120 86 -146 95 -26 9 -88 41 -138 72 -119 72 -180 102 -303
149 -97 38 -127 55 -265 150 -35 25 -87 52 -115 61 -27 10 -81 38 -120 63 -95
64 -175 104 -275 141 -47 17 -99 37 -116 45 -164 76 -229 99 -314 109 -181 22
-176 21 -284 57 -94 31 -177 46 -306 55 -50 4 -86 13 -108 26 -24 15 -42 18
-67 14 -51 -10 -433 108 -548 169 -66 35 -102 48 -143 51 -31 3 -88 13 -127
24 -93 26 -269 52 -332 50 -82 -3 -199 -1 -220 5 -11 2 -45 11 -75 18 -40 10
-120 14 -285 13 -167 -1 -239 2 -262 11 -40 16 -38 16 -53 -2z m840 -660 c35
-3 67 -8 70 -10 6 -3 70 -9 258 -20 51 -4 101 -8 110 -10 9 -1 51 -6 92 -10
41 -4 83 -9 92 -10 9 -2 48 -7 85 -10 37 -4 82 -9 98 -11 17 -3 55 -7 85 -10
30 -2 98 -14 150 -25 86 -19 132 -32 326 -89 34 -10 155 -50 270 -88 179 -61
553 -162 597 -162 8 0 52 -19 98 -42 115 -59 203 -98 344 -154 117 -46 169
-75 250 -140 22 -17 94 -68 160 -111 66 -44 158 -111 205 -148 182 -144 176
-140 240 -150 133 -20 195 -87 485 -525 157 -237 180 -266 315 -405 143 -148
309 -312 577 -575 139 -136 213 -229 336 -427 32 -50 65 -112 73 -138 9 -26
26 -65 39 -88 12 -23 47 -89 78 -147 51 -97 90 -197 101 -262 2 -15 27 -98 54
-185 58 -184 63 -201 53 -208 -5 -2 -5 -26 -1 -52 5 -26 11 -77 15 -113 4 -36
8 -72 10 -80 1 -8 6 -46 10 -83 3 -37 8 -76 10 -85 2 -10 6 -47 9 -83 4 -36 8
-76 10 -90 3 -13 7 -55 11 -93 4 -37 16 -93 26 -124 26 -76 33 -121 44 -294 3
-47 8 -97 11 -110 4 -24 49 -286 58 -348 3 -19 8 -46 10 -60 10 -54 16 -87 26
-145 15 -87 20 -118 25 -135 4 -14 8 -45 21 -160 4 -38 32 -204 49 -290 18
-92 26 -145 31 -220 3 -47 7 -101 9 -120 13 -129 15 -242 5 -282 -10 -36 -16
-510 -9 -693 1 -22 -1 -53 -4 -70 -3 -16 -9 -50 -12 -75 -4 -25 -9 -52 -10
-61 -27 -144 -30 -189 -26 -359 0 -30 -1 -66 -4 -80 -3 -14 -9 -68 -15 -120
-12 -119 -13 -126 -50 -233 -16 -49 -30 -95 -30 -103 0 -8 -9 -34 -21 -57 -22
-44 -99 -273 -99 -294 0 -7 -14 -28 -30 -47 -20 -23 -30 -44 -29 -63 1 -15 -4
-41 -11 -58 -7 -16 -23 -69 -35 -116 -21 -75 -65 -182 -136 -325 -12 -23 -42
-64 -67 -92 -26 -28 -63 -68 -82 -89 -61 -65 -184 -224 -260 -333 -80 -115
-164 -216 -315 -375 -70 -74 -162 -183 -224 -267 -108 -146 -334 -371 -488
-485 -29 -22 -81 -66 -116 -99 -34 -32 -92 -84 -127 -114 -36 -30 -81 -68
-100 -85 -19 -16 -65 -60 -101 -97 -47 -48 -74 -68 -91 -68 -14 0 -36 -9 -49
-21 -39 -34 -260 -138 -564 -264 -122 -51 -272 -115 -480 -204 -11 -5 -47 -19
-80 -31 -33 -12 -69 -26 -80 -31 -11 -5 -51 -20 -90 -33 -38 -14 -122 -43
-185 -66 -124 -44 -245 -79 -330 -95 -133 -25 -165 -34 -342 -99 -54 -19 -108
-38 -120 -40 -13 -2 -55 -11 -93 -20 -80 -17 -115 -24 -164 -32 -18 -3 -43 -8
-55 -11 -11 -2 -79 -7 -151 -10 -96 -3 -142 -9 -176 -23 -47 -20 -90 -25 -265
-35 -55 -3 -112 -8 -125 -12 -13 -3 -184 -5 -379 -4 -340 2 -356 3 -383 22
-27 20 -30 20 -70 4 -36 -15 -72 -17 -242 -15 -272 4 -568 3 -754 -2 -198 -5
-349 13 -551 66 -8 2 -60 16 -115 31 -55 14 -104 27 -110 29 -5 1 -26 12 -45
24 -19 12 -42 22 -50 23 -8 1 -38 3 -66 5 -29 2 -107 20 -174 39 -74 21 -143
35 -177 35 -37 0 -90 11 -157 34 -97 33 -141 43 -216 52 -73 8 -98 14 -205 49
-60 20 -171 51 -245 70 -159 39 -204 56 -365 134 -66 33 -149 69 -185 81 -56
20 -144 56 -280 118 -19 8 -37 16 -40 17 -3 0 -39 17 -80 36 -80 38 -104 63
-115 123 -12 59 -32 76 -100 83 -101 9 -346 144 -470 258 -27 26 -110 94 -184
153 -74 59 -143 116 -152 127 -58 65 -142 148 -199 196 -35 30 -70 59 -76 64
-16 14 -32 27 -174 141 -137 111 -185 158 -316 314 -48 58 -99 116 -112 130
-38 41 -125 176 -202 315 -40 72 -92 159 -115 195 -56 84 -112 198 -169 337
-25 62 -57 130 -72 152 -14 22 -42 99 -64 178 -21 76 -63 213 -93 305 -56 169
-73 250 -93 453 -3 39 -8 81 -10 95 -3 14 -6 83 -8 153 -4 101 -8 134 -22 155
-13 20 -18 49 -19 112 -1 47 -6 103 -13 125 -6 22 -13 67 -16 100 -6 81 -19
135 -71 300 -66 210 -68 220 -71 350 -3 129 -14 316 -19 325 -2 3 -6 39 -10
80 -4 41 -9 83 -11 93 -3 18 -8 76 -21 262 -8 113 -10 367 -5 465 2 30 0 76
-4 101 -5 35 -1 60 14 102 12 30 23 77 27 103 3 27 7 60 10 74 11 64 45 259
50 290 3 19 8 42 10 50 2 8 7 33 10 55 3 23 7 50 9 60 2 11 7 43 10 70 12 87
33 166 89 325 54 155 82 273 90 385 3 33 17 110 32 170 40 163 43 176 48 270
2 39 14 102 25 140 12 39 42 174 67 300 36 179 52 237 70 261 13 17 53 113 89
213 70 193 147 384 178 439 10 18 60 103 111 188 50 86 100 170 110 187 10 18
58 84 105 147 118 156 291 329 502 502 145 118 187 153 300 248 105 88 162
120 281 160 56 19 136 58 199 96 84 51 139 75 272 119 92 30 205 72 251 94 81
37 190 77 234 86 81 15 354 115 434 158 58 32 226 91 464 164 50 15 114 28
143 29 42 1 57 6 75 26 17 18 41 28 89 37 35 6 71 11 79 11 9 0 42 20 75 44
57 43 156 81 233 91 19 3 57 12 85 22 60 20 49 18 111 28 28 4 57 9 65 10 8 2
40 6 70 10 30 4 64 10 75 13 11 2 90 6 175 7 85 1 184 5 220 9 36 3 94 8 130
11 36 3 87 9 113 14 26 4 84 7 130 5 277 -10 530 -12 582 -4 108 16 159 20
265 25 58 3 127 7 153 10 26 3 89 8 140 10 107 6 151 11 198 26 57 18 251 46
299 43 25 -1 74 -5 110 -9z"/>
<path d="M8567 13144 c-1 -1 -34 -4 -72 -8 -72 -7 -104 -11 -165 -23 -19 -3
-38 -6 -42 -5 -4 1 -18 -2 -31 -7 -13 -5 -41 -12 -63 -15 -107 -17 -522 -140
-714 -211 -325 -121 -522 -240 -716 -430 -347 -342 -623 -810 -719 -1220 -21
-89 -22 -95 -29 -141 -20 -121 -26 -165 -31 -219 -4 -33 -8 -76 -10 -95 -7
-59 -16 -315 -20 -540 -2 -118 -4 -218 -4 -222 -1 -5 -7 -8 -15 -8 -18 0 -208
-76 -306 -123 -89 -42 -219 -125 -275 -175 -122 -109 -170 -221 -200 -462 -16
-138 -21 -329 -10 -396 10 -52 149 -337 194 -394 19 -26 73 -77 119 -115 46
-39 89 -74 96 -80 168 -146 322 -237 499 -294 144 -46 195 -56 342 -66 39 -2
86 -7 105 -9 19 -3 66 -8 104 -10 38 -3 70 -7 70 -8 1 -2 25 -52 54 -112 29
-60 73 -135 98 -167 50 -65 69 -107 126 -269 22 -63 46 -129 54 -147 8 -17 14
-36 14 -42 0 -25 22 -8 63 47 50 68 69 116 91 226 13 64 41 129 136 322 l121
242 62 11 c109 18 288 32 283 22 -2 -3 -47 -96 -101 -206 -113 -231 -128 -255
-153 -248 -23 6 -43 -25 -158 -234 -81 -149 -148 -252 -191 -298 -10 -11 -27
-34 -37 -50 l-17 -30 65 -137 c46 -95 81 -153 116 -191 61 -67 87 -118 150
-296 27 -77 57 -159 67 -182 l18 -42 30 44 c17 24 82 109 145 189 176 221 207
268 261 392 94 218 194 400 299 548 48 67 100 153 165 275 21 39 48 88 60 110
12 22 50 94 85 160 35 66 67 125 71 130 7 10 206 11 216 2 3 -3 -48 -121 -127
-292 -10 -22 -33 -71 -50 -110 -96 -209 -166 -339 -233 -430 -78 -105 -237
-340 -237 -349 0 -3 -16 -31 -37 -63 -34 -54 -133 -245 -133 -257 0 -23 -199
-301 -273 -381 -10 -11 -44 -56 -75 -99 -50 -71 -54 -81 -45 -105 6 -14 32
-78 58 -141 62 -154 107 -246 175 -360 58 -97 203 -327 231 -368 16 -22 17
-21 69 65 55 90 203 290 261 353 106 116 133 147 165 198 20 31 45 69 55 84
11 15 19 30 19 33 0 3 12 24 27 48 15 23 94 175 176 337 82 162 180 350 218
417 59 105 122 219 249 448 15 28 62 111 103 186 90 163 199 378 263 521 25
57 59 132 75 168 16 36 33 72 38 80 7 12 39 15 185 16 97 1 176 0 176 -2 0
-12 -127 -278 -153 -319 -27 -44 -146 -209 -226 -315 -37 -48 -71 -105 -71
-118 0 -6 16 -20 35 -32 35 -22 35 -22 18 -48 -37 -56 -44 -67 -49 -84 -4 -10
-9 -18 -13 -18 -4 0 -15 -16 -25 -35 -11 -19 -23 -35 -28 -35 -4 0 -8 -5 -8
-10 0 -6 -59 -90 -131 -187 -194 -259 -249 -346 -366 -578 -143 -285 -227
-445 -279 -533 -24 -40 -44 -76 -44 -78 0 -3 -5 -10 -10 -17 -6 -7 -30 -39
-53 -73 -23 -33 -78 -100 -121 -148 -43 -47 -99 -112 -124 -144 -51 -65 -196
-284 -233 -352 l-25 -45 29 -80 c36 -101 64 -158 102 -214 16 -23 35 -50 40
-59 32 -53 162 -216 196 -247 53 -47 80 -59 122 -51 55 10 163 118 221 221 9
17 32 57 51 90 36 61 173 337 284 570 62 129 72 149 91 183 5 9 28 58 51 107
87 191 103 228 234 535 64 151 126 295 138 320 72 160 131 278 180 363 31 54
71 128 88 165 45 96 296 672 429 982 62 146 117 270 121 276 5 6 70 11 171 12
90 1 179 4 198 7 19 2 60 7 90 10 192 23 374 110 519 250 20 19 54 52 76 72
84 79 143 168 193 293 26 66 69 242 78 325 4 33 8 74 10 90 5 43 5 276 0 301
-2 12 -7 39 -10 60 -21 129 -76 266 -150 369 -102 142 -248 251 -446 330 l-46
18 7 56 c7 60 3 486 -4 536 -3 17 -8 62 -12 100 -3 39 -8 84 -10 100 -2 17 -7
53 -10 80 -5 49 -40 295 -51 365 -11 77 -47 238 -61 280 -53 156 -121 234
-322 368 -172 114 -260 195 -424 392 -305 363 -479 487 -858 609 -144 46 -490
127 -664 155 -179 29 -243 37 -319 39 -31 2 -58 2 -59 1z m-1147 -1011 c54
-32 88 -121 95 -251 l4 -77 -62 -50 c-95 -76 -306 -291 -370 -378 -32 -42 -76
-112 -97 -155 -33 -66 -275 -771 -355 -1036 -29 -96 -31 -96 -65 -19 -56 124
-77 402 -57 733 12 190 16 220 46 340 72 284 190 523 333 672 63 65 148 138
162 138 5 0 21 9 36 20 42 30 198 79 253 79 29 1 61 -6 77 -16z"/>
</g>
</svg>
